<svg xmlns="http://www.w3.org/2000/svg" width="1436.009" height="161.125" viewBox="0 0 1436.009 161.125">
  <path id="path10484" d="M150,0,118.676.081V160.8h143.65c15.713-6.667,24.128-18.192,27.38-31.649H149.919ZM434.408,32.116H554.234c16.648-3.293,29.047-17.989,32.523-32.2H401.865c3.456,14.208,16.038,28.9,32.543,32.2M-53.65,31.669C-37,26.831-22.977,14.127-19.562.041H-195.388V95.007H-51.475v33.336l-112.874.1c-17.7,4.919-32.665,16.79-40.166,32.482l9.127-.163H-20.537V63.44H-164.349V31.669h110.7Zm460.35,129.1h31.161v-64.7H551.307v64.7h31.141V63.724L406.7,63.562v97.2ZM-487.561,32.015h119.806C-351.087,28.7-338.708,14.005-335.233-.2H-520.1c3.456,14.208,16.018,28.9,32.543,32.218M-849.252.163c3.6,14.066,15.774,28.4,32.462,32.015h50.431l2.561,1.016V160.439h31.506V33.194l2.846-1.016h50.492A45.41,45.41,0,0,0-646.635.163v-.3H-849.252Zm361.69,160.622h119.806c16.668-3.334,29.047-17.989,32.523-32.218H-520.1c3.456,14.229,16.018,28.884,32.543,32.218m0-65.249h119.806c16.668-3.293,29.047-17.989,32.523-32.2H-520.1c3.456,14.208,16.018,28.9,32.543,32.2" transform="translate(849.252 0.2)" fill="#fff"/>
</svg>
