<svg xmlns="http://www.w3.org/2000/svg" width="1236.009" height="161.13" viewBox="0 0 1236.009 161.13">
  <g id="layer1" transform="translate(858.004 -193.122)">
    <g id="g11594">
      <g id="g10482" transform="translate(-8.753 193.325)">
        <path id="path10484" d="M0,0-31.324.081V160.8H112.326c15.713-6.667,24.128-18.192,27.38-31.649H-.081ZM234.408,32.116H354.234c16.648-3.293,29.047-17.989,32.523-32.2H201.865c3.456,14.208,16.038,28.9,32.543,32.2m-388.058-.447C-137,26.831-122.977,14.127-119.562.041H-295.388V95.007h143.913v33.336l-112.874.1c-17.7,4.919-32.665,16.79-40.166,32.482l9.127-.163h174.851V63.44H-264.349V31.669h110.7ZM206.7,160.764h31.161v-64.7H351.307v64.7h31.141V63.724L206.7,63.562v97.2ZM-537.561,32.015h119.806C-401.087,28.7-388.708,14.005-385.233-.2H-570.1c3.456,14.208,16.018,28.9,32.543,32.218M-849.252.163c3.6,14.066,15.774,28.4,32.462,32.015h50.431l2.561,1.016V160.439h31.506V33.194l2.846-1.016h50.492A45.41,45.41,0,0,0-646.635.163v-.3H-849.252v.3Zm311.69,160.622h119.806c16.668-3.334,29.047-17.989,32.523-32.218H-570.1c3.456,14.229,16.018,28.884,32.543,32.218m0-65.249h119.806c16.668-3.293,29.047-17.989,32.523-32.2H-570.1c3.456,14.208,16.018,28.9,32.543,32.2" fill="#fff"/>
      </g>
    </g>
  </g>
</svg>
